<?xml version="1.0" standalone="no"?>
<!DOCTYPE svg PUBLIC "-//W3C//DTD SVG 20010904//EN"
 "http://www.w3.org/TR/2001/REC-SVG-20010904/DTD/svg10.dtd">
<svg version="1.0" xmlns="http://www.w3.org/2000/svg"
 width="200.000000pt" height="200.000000pt" viewBox="0 0 200.000000 200.000000"
 preserveAspectRatio="xMidYMid meet">

<g transform="translate(0.000000,200.000000) scale(0.100000,-0.100000)"
fill="#000000" stroke="none">
<path d="M924 1646 c-30 -14 -67 -42 -90 -70 l-38 -46 -113 0 c-61 0 -114 -4
-117 -9 -3 -4 -8 -58 -12 -119 l-7 -110 -40 -18 c-118 -54 -169 -110 -145
-162 15 -31 71 -62 128 -69 l40 -6 0 -46 c0 -26 5 -52 12 -59 17 -17 949 -17
966 0 8 8 10 50 6 147 l-6 136 56 29 c70 36 116 86 116 127 0 26 -6 33 -45 50
-25 11 -51 18 -58 16 -7 -2 2 -7 19 -11 17 -4 42 -18 55 -32 l23 -24 -20 -27
c-21 -28 -93 -76 -131 -88 -23 -6 -23 -5 -24 77 0 82 -6 161 -14 186 -3 9 -36
12 -118 12 l-113 0 -38 46 c-48 58 -122 94 -191 94 -32 0 -69 -9 -101 -24z
m189 -208 c4 -84 3 -146 -3 -152 -5 -5 -28 7 -60 34 l-51 43 -63 -7 c-34 -3
-66 -3 -70 1 -9 9 212 222 230 223 7 0 13 -50 17 -142z m-331 7 c-8 -97 44
-192 132 -238 57 -30 165 -30 222 0 88 46 140 141 132 238 l-5 55 94 0 c66 0
95 -4 97 -12 3 -7 7 -68 10 -135 l5 -122 -77 -25 c-190 -63 -461 -112 -681
-123 l-133 -6 7 204 c4 112 9 207 12 212 2 4 46 7 97 7 l93 0 -5 -55z m-239
-262 c-6 -109 -2 -104 -68 -88 -66 15 -78 24 -73 56 2 16 23 38 66 67 35 23
67 42 71 42 5 0 6 -35 4 -77z m930 -75 c4 -46 7 -98 7 -115 l0 -33 -456 0
-455 0 3 33 3 32 145 6 c225 10 512 67 685 138 28 11 53 20 56 20 3 1 9 -36
12 -81z"/>
<path d="M441 862 c-7 -12 -6 -26 2 -43 l13 -24 569 0 569 0 13 24 c8 17 9 31
2 43 -9 17 -40 18 -584 18 -544 0 -575 -1 -584 -18z m758 -15 c6 -8 8 -17 4
-20 -8 -9 -348 -9 -356 0 -4 3 -2 12 4 20 16 19 332 19 348 0z"/>
<path d="M160 431 l0 -141 35 0 c35 0 35 0 35 45 0 37 3 45 18 45 11 0 26 -16
40 -45 21 -42 24 -45 63 -45 l41 0 -19 33 c-11 17 -26 42 -33 54 -12 19 -12
24 3 41 27 29 22 93 -9 123 -21 20 -38 24 -100 27 l-74 4 0 -141z m114 66 c26
-19 17 -51 -17 -55 -24 -3 -27 0 -27 26 0 43 13 52 44 29z"/>
<path d="M1640 563 c0 -5 16 -35 36 -67 39 -66 40 -59 -16 -153 l-30 -53 40 0
c36 0 41 3 60 40 11 22 24 40 29 40 4 0 16 -18 26 -40 17 -37 21 -40 57 -40
21 0 38 3 38 8 0 4 -16 33 -35 65 -19 32 -35 63 -35 70 0 7 16 38 35 70 19 32
35 60 35 63 0 2 -17 4 -38 4 -34 0 -40 -4 -55 -35 -9 -19 -21 -35 -26 -35 -5
0 -18 16 -30 35 -17 30 -26 35 -56 35 -19 0 -35 -3 -35 -7z"/>
<path d="M452 495 c-34 -15 -62 -63 -62 -107 0 -69 81 -121 158 -102 30 7 38
14 40 37 3 27 2 28 -32 21 -40 -7 -86 1 -86 16 0 6 29 10 65 10 l65 0 0 30 c0
42 -20 79 -51 96 -35 17 -55 17 -97 -1z m78 -60 c11 -13 7 -15 -24 -15 -35 0
-49 13 -23 23 22 9 34 7 47 -8z"/>
<path d="M670 492 c-28 -13 -36 -24 -38 -50 -4 -42 10 -59 59 -72 57 -16 50
-34 -11 -28 -49 5 -50 5 -50 -22 0 -32 15 -40 69 -40 53 0 91 31 91 75 0 37
-21 57 -73 69 -42 10 -22 29 24 23 37 -5 39 -4 39 23 0 43 -48 53 -110 22z"/>
<path d="M1167 503 c-4 -3 -29 -5 -57 -4 l-50 1 0 -105 0 -105 35 0 35 0 0 69
c0 76 16 105 45 81 11 -9 15 -32 15 -81 l0 -69 35 0 35 0 0 74 c0 73 7 89 38
79 8 -3 12 -28 12 -79 l0 -74 35 0 35 0 0 75 c0 41 -5 85 -11 99 -17 36 -59
51 -103 36 -25 -8 -41 -8 -55 -1 -23 13 -35 14 -44 4z"/>
<path d="M1474 501 c-38 -16 -64 -60 -64 -107 0 -79 66 -126 155 -110 30 6 35
11 35 36 0 29 0 29 -48 23 -37 -4 -51 -2 -61 11 -12 14 -7 16 53 16 49 0 68 4
72 15 8 20 -13 79 -35 99 -22 20 -78 29 -107 17z m66 -66 c11 -13 7 -15 -25
-15 -32 0 -36 2 -25 15 7 8 18 15 25 15 7 0 18 -7 25 -15z"/>
<path d="M820 426 c0 -130 18 -150 130 -140 l70 7 0 103 0 104 -30 0 -30 0 0
-63 c0 -69 -15 -101 -46 -95 -16 3 -19 13 -22 81 l-3 77 -34 0 -35 0 0 -74z"/>
</g>
</svg>
